# xmcd
#
# Track frame offsets:
#	150
#	36842
#	48362
#	63532
#	82152
#	108201
#	119366
#	140307
#	149937
#	172102
#	183359
#	205495
#	214062
#	245476
#	253960
#	288851
#	302626
#	317009
#
# Disc length: 4416 seconds
#
# Revision: 1
# Processed by: cddbd v1.5.2PL0 Copyright (c) Steve Scherf et al.
# Submitted via: audiograbber 1.83.01
#
DISCID=1d113e12
DTITLE=Peach Weber - GäxBomb
DYEAR=2014
DGENRE=Comedy
TTITLE0=Es neus Programm
TTITLE1=Reh (Song)
TTITLE2=Gedicht erschti Laadig
TTITLE3=Woromm (Song)
TTITLE4=Zweusamkeit
TTITLE5=Wennt e Frau suechsch (Song)
TTITLE6=Läbeshilf
TTITLE7=Botox (Song)
TTITLE8=Im Reschtorant
TTITLE9=Doof (Song)
TTITLE10=Greisverchehr
TTITLE11=Mmmh Kebap (Song)
TTITLE12=Xundi Sache
TTITLE13=Abelaade (Song)
TTITLE14=Maa ond Frau
TTITLE15=Juanita (Song)
TTITLE16=Gedicht zweuiti Laadig
TTITLE17=Häppy Song (Song)
EXTD=
EXTT0=
EXTT1=
EXTT2=
EXTT3=
EXTT4=
EXTT5=
EXTT6=
EXTT7=
EXTT8=
EXTT9=
EXTT10=
EXTT11=
EXTT12=
EXTT13=
EXTT14=
EXTT15=
EXTT16=
EXTT17=
PLAYORDER=
